<svg width="61" height="24" viewBox="0 0 61 24" fill="none" xmlns="http://www.w3.org/2000/svg">
<path fill-rule="evenodd" clip-rule="evenodd" d="M1.35297 12.1837L1.10254 11.9246C1.3311 11.6864 1.60359 11.4973 1.90416 11.3682C2.20473 11.239 2.52735 11.1725 2.85323 11.1725C3.17911 11.1725 3.50173 11.239 3.80229 11.3682C4.10286 11.4973 4.37536 11.6864 4.60391 11.9246L4.34889 12.1743C4.15344 11.972 3.92083 11.8115 3.66451 11.7019C3.40819 11.5923 3.13323 11.5359 2.85552 11.5359C2.57782 11.5359 2.30286 11.5923 2.04654 11.7019C1.79022 11.8115 1.55761 11.972 1.36216 12.1743M2.24439 13.0412L2.01464 12.8056C2.12623 12.6876 2.25978 12.5938 2.40738 12.5298C2.55498 12.4657 2.71363 12.4327 2.8739 12.4327C3.03418 12.4327 3.19282 12.4657 3.34043 12.5298C3.48803 12.5938 3.62158 12.6876 3.73316 12.8056L3.50342 13.0412C3.33739 12.8733 3.11396 12.7786 2.8808 12.7773C2.76509 12.7764 2.65038 12.7993 2.54344 12.8446C2.43651 12.89 2.33951 12.9568 2.25818 13.0412M2.8808 13.6725L2.43508 13.2249C2.556 13.1074 2.71434 13.0388 2.8808 13.0317C3.04627 13.0371 3.20374 13.106 3.32191 13.2249L2.8808 13.6725ZM2.8808 12.1743C3.07489 12.1726 3.26724 12.2119 3.44589 12.2897C3.62454 12.3675 3.78567 12.4822 3.91926 12.6266L4.19726 12.3415C4.02587 12.1599 3.82059 12.0154 3.59364 11.9168C3.36669 11.8181 3.12271 11.7673 2.8762 11.7673C2.6297 11.7673 2.38571 11.8181 2.15876 11.9168C1.93181 12.0154 1.72653 12.1599 1.55514 12.3415L1.83084 12.6289C1.96614 12.4841 2.12883 12.3691 2.30896 12.2909C2.4891 12.2127 2.6829 12.173 2.8785 12.1743" fill="#0E6EB6"/>
<path fill-rule="evenodd" clip-rule="evenodd" d="M1.19862 13.9833H4.47254C2.1245 20.0726 1.71555 23.6414 4.09805 23.5472C-1.12874 23.8628 -0.450982 18.6569 1.20091 13.9833" fill="#0E6EB6"/>
<path fill-rule="evenodd" clip-rule="evenodd" d="M4.2085 4.64338C7.19523 -0.34584 12.0383 -0.854656 15.4892 0.961534C19.3168 2.98031 20.4977 7.65152 19.5442 11.7645C18.7057 15.5052 16.3025 18.9232 13.1963 21.121C11.2949 22.4434 9.13466 23.3238 6.86669 23.7004C8.6055 23.1189 10.1616 22.0724 11.3744 20.6687C12.1271 19.8307 12.7789 18.903 13.3157 17.9056C15.0779 15.4699 15.8935 13.0836 15.951 11.0059C16.0658 8.21923 14.8826 5.45372 12.3853 4.17461C10.2118 3.04155 7.28483 3.10045 4.2085 4.64574" fill="#F26329"/>
<path fill-rule="evenodd" clip-rule="evenodd" d="M1.95204 10.271C4.38738 5.32415 9.4028 4.97788 12.3574 7.11914C13.5218 7.96635 14.34 9.22468 14.6549 10.6526C15.0569 12.4711 14.7628 14.3556 14.0966 16.153C13.4837 17.8252 12.559 19.3591 11.374 20.6687C9.69228 22.5744 7.28451 24.0278 4.71132 23.9996C3.68295 24.0051 2.67229 23.7251 1.78662 23.1892C3.00199 23.7899 4.89283 23.5779 6.04846 23.1044C7.95997 22.3012 9.4947 20.6357 10.4527 18.7936C11.636 16.5369 12.5687 12.9046 10.6825 10.8245C8.97087 8.89293 5.5568 8.23336 1.95204 10.2686" fill="#09A14A"/>
<path d="M59.1597 13.1048L59.7387 11.4017C59.6698 11.4017 59.5962 11.4017 59.5342 11.4017C59.3541 11.3942 59.1745 11.4249 59.0065 11.4917C58.8385 11.5586 58.6858 11.6603 58.5578 11.7903C58.3013 12.0497 58.1268 12.3821 58.0569 12.7444C58.0064 12.9086 58.0121 13.0856 58.073 13.2461C58.1023 13.3054 58.148 13.3545 58.2044 13.3871C58.2609 13.4198 58.3254 13.4347 58.3901 13.4298C58.6732 13.4116 58.9434 13.3019 59.162 13.1165M61 10.6455L59.7869 14.1365H58.8013L58.9139 13.8044C58.6175 14.047 58.2542 14.1879 57.8754 14.2072C57.7254 14.2139 57.5765 14.1769 57.4461 14.1007C57.3156 14.0244 57.2088 13.9119 57.1379 13.7761C56.97 13.4346 56.9363 13.04 57.0437 12.6737C57.1678 12.0531 57.5075 11.4998 57.9995 11.1166C58.5447 10.6941 59.2167 10.48 59.8995 10.5112C60.2659 10.5073 60.6314 10.5476 60.9885 10.6314M56.9725 10.5866L55.7434 14.1365H54.7577L55.9915 10.5866H56.9725ZM56.3016 9.59253C56.3299 9.44377 56.4063 9.30915 56.5185 9.21041C56.6306 9.11167 56.772 9.05458 56.9197 9.04838C56.9826 9.04663 57.0451 9.05999 57.1022 9.08739C57.1592 9.11479 57.2092 9.15548 57.2482 9.2062C57.2882 9.26066 57.3153 9.32394 57.3273 9.391C57.3392 9.45807 57.3358 9.52707 57.3171 9.59253C57.284 9.747 57.2035 9.88653 57.0874 9.99063C56.9748 10.0861 56.8337 10.1393 56.6876 10.1414C56.626 10.1431 56.5648 10.1304 56.5087 10.1043C56.4526 10.0781 56.403 10.0393 56.3637 9.99063C56.326 9.93274 56.3013 9.86702 56.2914 9.79818C56.2815 9.72935 56.2865 9.65912 56.3062 9.59253M53.2161 13.3003L53.8479 11.4558C53.7667 11.4423 53.6844 11.436 53.6021 11.437C53.2786 11.43 52.9628 11.5383 52.7084 11.7432C52.4664 11.933 52.2972 12.204 52.2305 12.5088C52.2012 12.6117 52.1957 12.7203 52.2145 12.8258C52.2332 12.9312 52.2757 13.0308 52.3385 13.1165C52.4145 13.1992 52.5076 13.2632 52.611 13.304C52.7144 13.3448 52.8254 13.3612 52.9358 13.3521C53.0303 13.3467 53.1241 13.3325 53.2161 13.3097M55.7434 8.79397L53.926 14.0965C53.5432 14.1693 53.1551 14.2095 52.7658 14.2166C52.1754 14.2166 51.7411 14.0612 51.4608 13.7455C51.1805 13.4298 51.1024 13.0223 51.215 12.5041C51.3312 11.9455 51.6334 11.4458 52.0697 11.0907C52.5201 10.705 53.0912 10.4992 53.6779 10.5112C53.8363 10.5139 53.9943 10.5265 54.1512 10.5489L54.7554 8.78455L55.7434 8.79397ZM49.0163 10.5866L48.867 10.9847C49.2219 10.7042 49.651 10.54 50.0984 10.5136C50.2132 10.5025 50.3288 10.5236 50.4328 10.5746C50.5368 10.6257 50.6253 10.7047 50.6889 10.8033C50.7497 10.9271 50.7861 11.062 50.7959 11.2003C50.8058 11.3385 50.7889 11.4774 50.7463 11.6089C50.7247 11.7167 50.6963 11.8229 50.6613 11.927L49.9054 14.1389H48.9244L49.6527 12.0188C49.6796 11.9594 49.6997 11.8969 49.7124 11.8327C49.7814 11.4817 49.7124 11.3098 49.5126 11.3098C49.3127 11.3098 48.9658 11.4865 48.5729 11.8563L47.7849 14.1436H46.7992L48.0307 10.5866H49.0163ZM47.6148 8.79397L45.7768 14.146H44.7154L46.5534 8.79397H47.6148ZM43.5253 8.79397L41.6873 14.146H40.7109L42.5489 8.79397H43.5253ZM39.1601 13.1142L39.7345 11.4111C39.6655 11.4111 39.592 11.4111 39.53 11.4111C39.3506 11.4037 39.1717 11.4344 39.0045 11.5013C38.8372 11.5682 38.6853 11.6698 38.5581 11.7998C38.3038 12.0529 38.128 12.3774 38.0527 12.7326C37.9994 12.8968 38.0068 13.0753 38.0734 13.2343C38.1016 13.2934 38.1465 13.3425 38.2022 13.3753C38.2578 13.408 38.3218 13.4229 38.3858 13.4181C38.6692 13.3979 38.9396 13.2885 39.1601 13.1048M40.9981 10.6337L39.7919 14.1365H38.8109L38.9257 13.8044C38.629 14.0448 38.2671 14.1854 37.8896 14.2072C37.7369 14.2166 37.5848 14.1813 37.4509 14.1054C37.3171 14.0295 37.2071 13.9161 37.1337 13.7785C36.9693 13.4359 36.9357 13.0427 37.0395 12.676C37.1628 12.0551 37.5026 11.5016 37.9953 11.119C38.5422 10.6963 39.2157 10.4822 39.8999 10.5136C40.2654 10.51 40.6302 10.5503 40.9866 10.6337M36.7178 9.82809L36.4284 10.5866H37.1521L36.8557 11.364H36.1274L35.6955 12.5229C35.6576 12.6104 35.6299 12.7021 35.6128 12.7962C35.5415 13.1142 35.6128 13.2673 35.8126 13.2673C36.0269 13.2356 36.2334 13.1629 36.4215 13.0529L36.2216 13.9952C35.9452 14.1407 35.6407 14.2212 35.3302 14.2308C35.1976 14.2404 35.0649 14.2154 34.9444 14.1581C34.8238 14.1009 34.7194 14.0132 34.6409 13.9033C34.5702 13.7741 34.5254 13.6316 34.5092 13.4844C34.493 13.3371 34.5058 13.188 34.5467 13.0459C34.5766 12.9446 34.6065 12.8409 34.6409 12.7373L35.167 11.3781H34.5008L34.7903 10.6007H35.4611L35.7391 9.84929L36.7178 9.82809ZM34.317 10.5866L33.0901 14.1365H32.1091L33.3313 10.5866H34.317ZM33.6392 9.59253C33.6732 9.44174 33.7538 9.30625 33.869 9.2062C33.9799 9.10848 34.1202 9.05277 34.2664 9.04838C34.3298 9.04626 34.3927 9.05944 34.4502 9.08685C34.5077 9.11427 34.558 9.15515 34.5973 9.2062C34.6344 9.26212 34.6597 9.32537 34.6715 9.3919C34.6834 9.45843 34.6816 9.52676 34.6662 9.59253C34.6295 9.74551 34.5495 9.88399 34.4364 9.99063C34.3236 10.084 34.184 10.137 34.039 10.1414C33.9772 10.1445 33.9155 10.1325 33.8592 10.1063C33.8028 10.0801 33.7534 10.0404 33.715 9.99063C33.6754 9.93368 33.6487 9.8684 33.6368 9.79954C33.6249 9.73069 33.6281 9.65997 33.6461 9.59253M30.4411 14.9233C30.4733 14.7584 30.3423 14.6359 30.0528 14.5723L29.6416 14.471C29.5063 14.4794 29.3738 14.5137 29.251 14.5723C29.1772 14.5928 29.11 14.6331 29.0563 14.689C29.0026 14.7448 28.9643 14.8143 28.9454 14.8903C28.8949 15.14 29.1109 15.2602 29.5979 15.2602C29.8022 15.2689 30.0064 15.2426 30.2022 15.1824C30.2592 15.1636 30.3105 15.1298 30.3508 15.0844C30.3911 15.0389 30.4191 14.9834 30.4319 14.9233M30.3906 12.5677C30.7467 12.5677 30.9764 12.3086 31.0798 11.7998C31.0981 11.7386 31.1041 11.6743 31.0974 11.6107C31.0907 11.5471 31.0714 11.4856 31.0408 11.4299C31.0045 11.3828 30.9573 11.3457 30.9036 11.3218C30.8499 11.298 30.7912 11.2882 30.7329 11.2933C30.3745 11.2933 30.1378 11.5501 30.0184 12.0754C29.9517 12.3981 30.0689 12.5677 30.3814 12.5677M32.7685 10.5866L32.5066 11.364H31.9804C32.0165 11.5522 32.0165 11.7458 31.9804 11.934C31.9004 12.3007 31.6981 12.6273 31.4084 12.8574C31.0977 13.1079 30.7121 13.2402 30.317 13.232C30.1632 13.2276 30.0093 13.2387 29.8575 13.265C29.8163 13.269 29.7775 13.2869 29.7472 13.3159C29.7169 13.3448 29.6967 13.3832 29.6898 13.4251C29.6783 13.4675 29.6898 13.5052 29.7542 13.5523C29.9797 13.6209 30.2102 13.6713 30.4434 13.7031C30.8501 13.7761 31.1327 13.8939 31.2659 14.0847C31.3393 14.1842 31.3891 14.2999 31.4114 14.4225C31.4337 14.5452 31.428 14.6714 31.3946 14.7914C31.2314 15.5593 30.579 15.9504 29.4394 15.9504C29.0501 15.9802 28.6604 15.8986 28.3136 15.7148C28.2042 15.6524 28.1183 15.5543 28.0695 15.4361C28.0208 15.3178 28.0121 15.1862 28.0448 15.0623C28.1206 14.7231 28.4469 14.4475 29.0304 14.2685C28.9113 14.2126 28.8147 14.1161 28.7573 13.9953C28.6999 13.8746 28.6852 13.7372 28.7157 13.6065C28.7869 13.2767 29.0557 13.0577 29.5221 12.9517C29.3647 12.8409 29.2455 12.6818 29.1815 12.4974C29.1176 12.3129 29.1121 12.1124 29.166 11.9246C29.2567 11.5454 29.4757 11.2115 29.784 10.9823C30.1086 10.7157 30.5147 10.5755 30.9305 10.5866H32.7685ZM28.8627 10.5866L27.6359 14.146H26.6548L27.8656 10.5866H28.8627ZM28.1735 9.59253C28.2078 9.44187 28.2883 9.30647 28.4032 9.2062C28.5133 9.10996 28.6516 9.05438 28.7961 9.04838C28.8593 9.04734 28.9219 9.061 28.9792 9.08834C29.0365 9.11567 29.087 9.15597 29.1269 9.2062C29.1656 9.26134 29.1914 9.32489 29.2021 9.39191C29.2129 9.45893 29.2084 9.52759 29.189 9.59253C29.1528 9.74572 29.0728 9.88435 28.9592 9.99063C28.8459 10.0865 28.704 10.1397 28.5572 10.1414C28.4958 10.1436 28.4348 10.1311 28.379 10.105C28.3231 10.0788 28.274 10.0396 28.2355 9.99063C28.1985 9.93245 28.1733 9.8672 28.1614 9.79879C28.1496 9.73038 28.1513 9.66022 28.1666 9.59253M23.8404 9.6844L22.6273 13.2508H23.6153C23.8611 13.2552 24.1054 13.2094 24.3338 13.1159C24.5622 13.0225 24.7701 12.8834 24.9455 12.7067C25.3194 12.3512 25.5743 11.8838 25.6738 11.371C25.733 11.1648 25.7466 10.9476 25.7136 10.7353C25.6806 10.523 25.6019 10.3209 25.4831 10.1437C25.3455 9.97913 25.1716 9.85051 24.9758 9.76858C24.78 9.68665 24.568 9.65375 24.3574 9.67262L23.8404 9.6844ZM23.0983 8.79397H24.7479C25.5796 8.79397 26.1632 9.02953 26.5009 9.5195C26.8386 10.0095 26.9214 10.6337 26.7605 11.404C26.6085 12.1612 26.2255 12.8493 25.6669 13.3686C25.1767 13.8643 24.5174 14.1448 23.8289 14.1507H21.2695L23.0983 8.79397Z" fill="black"/>
<path fill-rule="evenodd" clip-rule="evenodd" d="M21.6831 17.7948H22.2506C22.4368 17.801 22.6194 17.7411 22.7675 17.6252C22.8287 17.5705 22.8768 17.5021 22.9083 17.4253C22.9397 17.3486 22.9536 17.2655 22.949 17.1824C22.9535 17.0982 22.9396 17.0141 22.9081 16.9363C22.8767 16.8584 22.8287 16.7887 22.7675 16.7324C22.6204 16.6152 22.4365 16.5573 22.2506 16.5699H21.6831V17.7948ZM21.6831 18.1176V19.4791H21.3477V16.2401H22.177C22.4704 16.2244 22.7608 16.3071 23.0041 16.4757C23.1056 16.5606 23.1862 16.6688 23.2393 16.7916C23.2923 16.9144 23.3165 17.0483 23.3097 17.1824C23.3148 17.3135 23.2899 17.4441 23.2368 17.5636C23.1837 17.6831 23.104 17.7881 23.0041 17.8702C22.7639 18.047 22.4724 18.135 22.177 18.1199L21.6831 18.1176Z" fill="black"/>
<path fill-rule="evenodd" clip-rule="evenodd" d="M24.6608 19.1658C24.7637 19.1683 24.8659 19.1486 24.9609 19.108C25.0559 19.0675 25.1415 19.0069 25.2122 18.9303C25.287 18.8509 25.3458 18.7572 25.3853 18.6546C25.4247 18.5519 25.444 18.4423 25.442 18.3319C25.4451 18.2218 25.4263 18.1122 25.3868 18.0097C25.3473 17.9073 25.2879 17.8141 25.2122 17.736C25.1436 17.6554 25.0588 17.591 24.9636 17.5471C24.8684 17.5032 24.7652 17.4808 24.6608 17.4815C24.5552 17.4792 24.4504 17.5007 24.3539 17.5447C24.2574 17.5887 24.1716 17.654 24.1025 17.736C24.0272 17.8144 23.968 17.9076 23.9285 18.01C23.889 18.1124 23.8701 18.2219 23.8728 18.3319C23.8693 18.5547 23.9519 18.7698 24.1025 18.9303C24.1737 19.0083 24.2603 19.0697 24.3567 19.1104C24.453 19.151 24.5567 19.1699 24.6608 19.1658ZM24.6608 19.4862C24.5129 19.4925 24.3654 19.4665 24.228 19.4101C24.0906 19.3536 23.9664 19.268 23.8636 19.1588C23.6608 18.9285 23.5486 18.6292 23.5486 18.319C23.5486 18.0087 23.6608 17.7095 23.8636 17.4792C24.0762 17.2655 24.362 17.1459 24.6597 17.1459C24.9574 17.1459 25.2432 17.2655 25.4558 17.4792C25.6562 17.7107 25.7669 18.0095 25.7669 18.319C25.7669 18.6285 25.6562 18.9273 25.4558 19.1588C25.3536 19.2675 25.2302 19.3529 25.0936 19.4093C24.957 19.4657 24.8103 19.4919 24.6631 19.4862" fill="black"/>
<path fill-rule="evenodd" clip-rule="evenodd" d="M27.0889 18.8997L27.7092 17.1047H27.9137L28.5455 18.8973L29.2072 17.1377H29.5151L28.6282 19.4815H28.426L27.8057 17.7242L27.1785 19.4815H26.9786L26.0918 17.1377H26.4318L27.0889 18.8997Z" fill="black"/>
<path fill-rule="evenodd" clip-rule="evenodd" d="M31.3899 18.0352C31.3698 17.9119 31.3191 17.7959 31.2429 17.6983C31.1842 17.6251 31.1095 17.5672 31.0249 17.5291C30.9403 17.491 30.8481 17.474 30.7558 17.4792C30.6672 17.4824 30.5804 17.5051 30.5011 17.5458C30.4218 17.5864 30.352 17.6441 30.2963 17.7148C30.2259 17.8123 30.1722 17.9214 30.1378 18.0375L31.3899 18.0352ZM30.0918 18.3131C30.0912 18.4229 30.1122 18.5317 30.1537 18.6329C30.1951 18.7341 30.2562 18.8257 30.3331 18.902C30.4077 18.9829 30.4979 19.0469 30.598 19.0899C30.6981 19.1329 30.8058 19.1539 30.9143 19.1517C31.0476 19.1521 31.1798 19.1282 31.3049 19.0811C31.4376 19.0267 31.5616 18.952 31.6725 18.8596L31.746 18.796V19.1588H31.7231C31.6089 19.26 31.4782 19.3397 31.3371 19.3944C31.1268 19.471 30.9002 19.4883 30.6811 19.4443C30.4621 19.4004 30.2585 19.2969 30.0918 19.1447C29.9856 19.0351 29.9025 18.9044 29.8475 18.7605C29.7926 18.6167 29.7671 18.4628 29.7725 18.3084C29.7603 18.0022 29.8584 17.702 30.0482 17.4651C30.1346 17.3587 30.2433 17.2738 30.3662 17.2167C30.4892 17.1596 30.6232 17.1318 30.7581 17.1353C30.895 17.1275 31.0319 17.1511 31.1587 17.2045C31.2855 17.2579 31.399 17.3397 31.491 17.4439C31.6632 17.6719 31.7525 17.9543 31.7437 18.2425V18.2896L30.0918 18.3131Z" fill="black"/>
<path fill-rule="evenodd" clip-rule="evenodd" d="M32.7686 17.4792C32.812 17.3963 32.8712 17.3232 32.9426 17.2641C33.014 17.2049 33.0962 17.161 33.1844 17.1349C33.2725 17.1088 33.3649 17.101 33.456 17.112C33.5472 17.123 33.6353 17.1525 33.7151 17.1989C33.7198 17.1991 33.7243 17.2008 33.728 17.2038C33.7317 17.2067 33.7344 17.2108 33.7358 17.2154V17.5828C33.7151 17.5711 33.7358 17.5828 33.7082 17.5828C33.189 17.286 32.872 17.7124 32.7686 18.0021V19.4768H32.4492V17.1211H32.7686V17.4792Z" fill="black"/>
<path fill-rule="evenodd" clip-rule="evenodd" d="M36.0698 16.5794H35.0566V16.2826H37.4231V16.5794H36.4099V19.4462H36.0698V16.5794Z" fill="black"/>
<path fill-rule="evenodd" clip-rule="evenodd" d="M41.5865 16.6288V17.663H42.8685V17.9692H41.5865V19.1258H43.1074V19.4344H41.2488V16.3203H43.0477V16.6288H41.5865Z" fill="black"/>
<path fill-rule="evenodd" clip-rule="evenodd" d="M44.026 17.4345C44.1025 17.3368 44.1994 17.258 44.3095 17.2038C44.4197 17.1496 44.5402 17.1213 44.6624 17.1212C44.7739 17.1169 44.885 17.1369 44.9884 17.18C45.0917 17.223 45.185 17.2881 45.262 17.3709C45.3125 17.4267 45.3564 17.4884 45.393 17.5546L45.4389 17.4769C45.5175 17.3679 45.6196 17.2789 45.7371 17.2168C45.8546 17.1547 45.9845 17.1212 46.1167 17.1188C46.2282 17.1142 46.3394 17.1341 46.4429 17.1772C46.5463 17.2203 46.6395 17.2855 46.7164 17.3685C46.7944 17.4537 46.855 17.5541 46.8945 17.6638C46.934 17.7734 46.9515 17.8901 46.9461 18.0069V19.4014H46.613V18.021C46.6204 17.8665 46.5684 17.7151 46.4682 17.5994C46.4204 17.5444 46.361 17.5015 46.2945 17.4737C46.228 17.4459 46.1562 17.4341 46.0845 17.4392C45.9901 17.4438 45.8978 17.4698 45.8144 17.5155C45.7309 17.5611 45.6584 17.6251 45.6021 17.703C45.5595 17.7467 45.5224 17.7958 45.4918 17.8491V19.4014H45.1587V18.021C45.1628 17.9444 45.1522 17.8677 45.1274 17.7954C45.1025 17.723 45.064 17.6564 45.0139 17.5994C44.9656 17.5451 44.9061 17.5026 44.8397 17.4749C44.7733 17.4472 44.7018 17.435 44.6302 17.4392C44.5352 17.4441 44.4424 17.4702 44.3582 17.5158C44.2741 17.5614 44.2007 17.6253 44.1432 17.703C44.1026 17.7492 44.065 17.7979 44.0306 17.8491V19.4014H43.7043V17.1636H44.026V17.4345Z" fill="black"/>
<path d="M47.6587 17.1683H47.9918V17.451C48.0616 17.3308 48.1719 17.2411 48.302 17.1989C48.499 17.1179 48.7146 17.0971 48.9229 17.1389C49.1312 17.1807 49.3233 17.2833 49.476 17.4345C49.6685 17.6729 49.7748 17.9721 49.7769 18.2816C49.779 18.5911 49.6768 18.8918 49.4875 19.1329C49.0877 19.5805 48.5019 19.4792 48.024 19.2201L47.9918 19.1989V20.2895H47.6587V17.1683ZM49.0004 17.5758C48.7247 17.3921 48.3227 17.4345 47.9987 17.8797V18.7913C48.3364 19.1635 48.773 19.1989 49.0625 18.9821C49.1639 18.8937 49.2443 18.7826 49.2975 18.6575C49.3506 18.5323 49.3752 18.3963 49.3692 18.2599C49.3632 18.1235 49.3269 17.9903 49.2629 17.8705C49.199 17.7507 49.1092 17.6475 49.0004 17.5688" fill="black"/>
<path d="M26.8869 14.6736H20.5918V15.0458H26.8869V14.6736Z" fill="black"/>
<path d="M60.5958 14.6736H31.9553V15.0458H60.5958V14.6736Z" fill="black"/>
<path fill-rule="evenodd" clip-rule="evenodd" d="M38.3285 19.1046C38.4315 19.1081 38.534 19.0889 38.6291 19.0483C38.7243 19.0076 38.8098 18.9465 38.8799 18.869C39.0297 18.709 39.1122 18.4949 39.1096 18.273C39.1113 18.05 39.029 17.8348 38.8799 17.6724C38.8111 17.5932 38.7258 17.5309 38.6303 17.4902C38.5349 17.4494 38.4317 17.4311 38.3285 17.4368C38.2247 17.4327 38.1213 17.4517 38.0254 17.4923C37.9294 17.533 37.8432 17.5944 37.7725 17.6724C37.6215 17.8336 37.5389 18.0496 37.5427 18.273C37.5404 18.3831 37.5595 18.4924 37.599 18.5948C37.6384 18.6971 37.6974 18.7904 37.7725 18.869C37.8441 18.9458 37.9305 19.0064 38.0262 19.047C38.122 19.0875 38.2249 19.1071 38.3285 19.1046ZM38.3285 19.4273C38.1807 19.4323 38.0336 19.4057 37.8963 19.3493C37.7591 19.293 37.6348 19.208 37.5312 19.0999C37.4269 18.9891 37.3453 18.8581 37.2913 18.7144C37.2372 18.5708 37.2118 18.4175 37.2165 18.2636C37.2096 18.1081 37.234 17.9527 37.2881 17.8072C37.3423 17.6618 37.425 17.5293 37.5312 17.418C37.634 17.3085 37.7581 17.2223 37.8955 17.1651C38.0328 17.1079 38.1803 17.0809 38.3285 17.0858C38.476 17.0802 38.623 17.1069 38.7597 17.1642C38.8964 17.2215 39.0196 17.308 39.1211 17.418C39.2265 17.5281 39.3092 17.6589 39.3641 17.8026C39.419 17.9463 39.4449 18.0999 39.4404 18.2542C39.444 18.4084 39.4176 18.5617 39.3628 18.7053C39.308 18.8488 39.2258 18.9798 39.1211 19.0905C39.0181 19.198 38.8945 19.2826 38.7581 19.339C38.6217 19.3953 38.4754 19.4222 38.3285 19.4179" fill="black"/>
<path fill-rule="evenodd" clip-rule="evenodd" d="M51.2976 19.1045C51.4004 19.1069 51.5026 19.0871 51.5976 19.0465C51.6925 19.006 51.7782 18.9455 51.849 18.869C51.9993 18.7092 52.0819 18.4949 52.0787 18.273C52.0808 18.0498 51.9985 17.8345 51.849 17.6723C51.7781 17.5949 51.6925 17.5333 51.5974 17.4911C51.5024 17.449 51.4 17.4272 51.2964 17.4272C51.1929 17.4272 51.0904 17.449 50.9954 17.4911C50.9004 17.5333 50.8148 17.5949 50.7439 17.6723C50.6685 17.7517 50.6093 17.8457 50.5699 17.9489C50.5304 18.052 50.5115 18.1622 50.5141 18.273C50.511 18.3831 50.5298 18.4927 50.5693 18.5952C50.6088 18.6976 50.6682 18.7908 50.7439 18.869C50.8147 18.9455 50.9003 19.006 50.9953 19.0465C51.0902 19.0871 51.1924 19.1069 51.2953 19.1045M51.2953 19.4272C51.1474 19.4332 51 19.4071 50.8626 19.3507C50.7252 19.2943 50.601 19.2088 50.498 19.0998C50.3932 18.9895 50.3112 18.8585 50.2571 18.7147C50.203 18.571 50.1779 18.4175 50.1833 18.2636C50.1763 18.1076 50.2011 17.9518 50.2561 17.8062C50.311 17.6606 50.395 17.5284 50.5026 17.4179C50.6049 17.3077 50.7289 17.2211 50.8664 17.1638C51.0038 17.1065 51.1516 17.0799 51.2999 17.0857C51.448 17.081 51.5955 17.1081 51.7328 17.1653C51.8701 17.2225 51.9942 17.3085 52.0971 17.4179C52.2 17.5294 52.2805 17.6607 52.3337 17.8042C52.3869 17.9478 52.4119 18.1007 52.4073 18.2541C52.4152 18.5639 52.3037 18.8643 52.0971 19.0904C51.9935 19.1984 51.8691 19.2833 51.7319 19.3397C51.5947 19.396 51.4476 19.4226 51.2999 19.4178" fill="black"/>
<path fill-rule="evenodd" clip-rule="evenodd" d="M53.7287 18.928L54.3513 17.1236H54.5604L55.183 18.9233L55.8447 17.1613H56.1617L55.2749 19.5004H55.0727L54.4478 17.7478L53.8252 19.5004H53.6207L52.7339 17.1613H53.0693L53.7287 18.928Z" fill="black"/>
<path fill-rule="evenodd" clip-rule="evenodd" d="M58.0406 18.0352C58.0216 17.9115 57.9708 17.7952 57.8936 17.6983C57.8354 17.6252 57.7611 17.5672 57.6768 17.5291C57.5926 17.491 57.5007 17.4739 57.4088 17.4792C57.3199 17.4806 57.2324 17.5025 57.1529 17.5433C57.0733 17.5841 57.0038 17.6427 56.9493 17.7148C56.876 17.8105 56.8221 17.9202 56.7908 18.0375L58.0406 18.0352ZM56.7448 18.3131C56.7439 18.4229 56.7648 18.5318 56.8063 18.6331C56.8478 18.7343 56.9089 18.8258 56.9861 18.902C57.0601 18.9823 57.1496 19.0459 57.2489 19.0889C57.3481 19.1319 57.455 19.1533 57.5627 19.1517C57.6959 19.1516 57.8281 19.1276 57.9533 19.0811C58.0859 19.0293 58.2087 18.9544 58.3163 18.8596L58.3967 18.796V19.1588H58.3806C58.2638 19.2598 58.1309 19.3395 57.9878 19.3944C57.7767 19.4714 57.5494 19.4889 57.3295 19.4449C57.1096 19.401 56.9053 19.2973 56.7379 19.1447C56.6329 19.0343 56.5507 18.9034 56.4962 18.7597C56.4417 18.616 56.4161 18.4625 56.4209 18.3084C56.4108 18.0028 56.5078 17.7037 56.6943 17.4651C56.7856 17.3629 56.8964 17.281 57.0198 17.2243C57.1432 17.1677 57.2765 17.1376 57.4117 17.1358C57.5469 17.1341 57.681 17.1607 57.8057 17.2141C57.9305 17.2675 58.0433 17.3465 58.1371 17.4462C58.3111 17.6735 58.4021 17.956 58.3944 18.2448V18.2919L56.7448 18.3131Z" fill="black"/>
<path fill-rule="evenodd" clip-rule="evenodd" d="M59.4195 17.4557C59.4636 17.3743 59.5229 17.3027 59.594 17.2449C59.6652 17.1871 59.7467 17.1443 59.834 17.1189C59.9213 17.0935 60.0127 17.0861 60.1028 17.097C60.1929 17.1079 60.2801 17.1369 60.3592 17.1824C60.3592 17.1824 60.3753 17.1824 60.3845 17.1942V17.5758C60.3569 17.5452 60.3845 17.5758 60.3569 17.5593C59.8354 17.2601 59.5206 17.6912 59.4172 17.9739V19.4485H59.0979V17.1023H59.4195V17.4557Z" fill="black"/>
</svg>
