<svg width="24" height="24" viewBox="0 0 24 24" fill="none" xmlns="http://www.w3.org/2000/svg">
<circle cx="12.0012" cy="12" r="12" fill="#FFABE7"/>
<path fill-rule="evenodd" clip-rule="evenodd" d="M12.0012 22C17.5241 22 22.0012 17.5228 22.0012 12C22.0012 6.47715 17.5241 2 12.0012 2C6.47837 2 2.00122 6.47715 2.00122 12C2.00122 17.5228 6.47837 22 12.0012 22ZM14.1701 20.1561C13.478 20.3397 12.751 20.4375 12.0012 20.4375C10.8665 20.4375 9.78406 20.2135 8.79576 19.8073C9.73358 16.3457 12.3269 13.8664 15.2978 12.7622C15.8131 15.2593 15.4293 17.9372 14.1701 20.1561ZM16.3908 19.2072C17.1966 17.0126 17.3553 14.5951 16.8615 12.3157C18.0538 12.075 19.2698 12.0529 20.4344 12.2726C20.3411 15.2107 18.7457 17.7698 16.3908 19.2072ZM20.3248 10.61C19.0355 10.4208 17.7079 10.4761 16.4116 10.753C16.1604 10.0484 15.8434 9.36952 15.4657 8.72492C16.5312 8.10953 17.5027 7.3323 18.3345 6.42483C19.3541 7.58211 20.0614 9.02106 20.3248 10.61ZM17.1507 5.3156C16.4005 6.137 15.5178 6.83552 14.5497 7.37997C13.8962 6.5494 13.1402 5.80161 12.2973 5.15953L12.2769 5.14403L12.2558 5.12994C12.2557 5.12988 12.2539 5.12866 12.2501 5.12594C12.2456 5.12276 12.2396 5.11847 12.2319 5.11288C12.2163 5.10158 12.197 5.0873 12.1739 5.06999C12.1477 5.05034 12.1213 5.03046 12.093 5.00911L12.0873 5.00477C12.0643 4.98746 12.0401 4.96916 12.0135 4.9492C11.9561 4.90601 11.8931 4.85904 11.8352 4.81757C11.7948 4.78858 11.7367 4.74759 11.6773 4.71144L11.6396 4.68539C11.5624 4.63191 11.4463 4.5515 11.3409 4.48679C11.2425 4.41776 11.1094 4.33913 11.0222 4.28807C10.9379 4.23868 10.8471 4.18684 10.7906 4.15463L10.7473 4.12986C10.7369 4.1238 10.7279 4.11877 10.7241 4.11668L10.7234 4.11628C10.7168 4.1126 10.7095 4.10858 10.703 4.10496L10.6941 4.10008C10.6815 4.09315 10.6689 4.08621 10.6558 4.07892C10.6408 4.07058 10.6287 4.0637 10.6198 4.05855L10.6138 4.05428L10.5922 4.04113C10.5143 3.99352 10.4331 3.95004 10.3891 3.92644L10.3728 3.91772L10.3539 3.90758L10.3346 3.89844C10.2928 3.8787 10.2294 3.84849 10.1579 3.81443L10.1563 3.81363C10.1338 3.80294 10.1105 3.79182 10.0869 3.78059C10.702 3.63792 11.3428 3.5625 12.0012 3.5625C13.9399 3.5625 15.7259 4.21637 17.1507 5.3156ZM7.86475 4.6443C6.61328 5.34958 5.55988 6.365 4.80882 7.58628C5.70224 8.03939 6.66184 8.35954 7.65038 8.53553L7.6525 8.53591L7.65463 8.53631C8.87622 8.7605 10.1356 8.7545 11.3685 8.53222C11.9341 8.4301 12.4896 8.27828 13.0285 8.08108C12.522 7.4819 11.953 6.93829 11.3305 6.46222C11.2878 6.43266 11.2406 6.39756 11.202 6.36866C11.1727 6.34678 11.1383 6.32084 11.1044 6.29525L11.1035 6.29457C11.0811 6.27762 11.0589 6.26086 11.0385 6.24556C10.9828 6.20369 10.9322 6.16603 10.8903 6.13603C10.8631 6.11653 10.8475 6.106 10.841 6.10166C10.8386 6.10005 10.8375 6.09929 10.8375 6.09925L10.8136 6.08575L10.7854 6.06666C10.744 6.03853 10.7071 6.013 10.6733 5.98959L10.673 5.98937C10.5989 5.93811 10.5395 5.89701 10.4792 5.86125L10.4397 5.83778L10.4042 5.81083C10.4052 5.81163 10.4046 5.81123 10.402 5.8095L10.4017 5.80927C10.3953 5.80508 10.3787 5.79405 10.348 5.775C10.3068 5.74947 10.2563 5.71931 10.2024 5.68769C10.1258 5.64288 10.0561 5.60309 10.0009 5.57163L9.99441 5.5679C9.97139 5.55475 9.95107 5.54315 9.93407 5.53334L9.93238 5.53238L9.91904 5.525L9.91272 5.52153C9.90019 5.51466 9.88347 5.50544 9.86644 5.49597C9.84651 5.48488 9.82232 5.47125 9.79879 5.45747C9.78591 5.44994 9.76191 5.43581 9.73504 5.41838C9.70201 5.39869 9.66657 5.37966 9.62438 5.357L9.62251 5.35597C9.57204 5.33209 9.50922 5.30216 9.44257 5.27034C9.31713 5.21053 9.17794 5.14419 9.08135 5.09926L9.07094 5.09443L9.02729 5.0726C8.87431 5.00168 8.69118 4.93224 8.48609 4.85448L8.48538 4.85422C8.44072 4.83729 8.39504 4.81997 8.34838 4.80215C8.22189 4.75675 8.09053 4.71541 7.95293 4.6721L7.9526 4.672C7.9236 4.66287 7.89432 4.65366 7.86475 4.6443ZM4.09619 9.04357C5.12576 9.56312 6.22882 9.92974 7.36375 10.132C8.78444 10.3925 10.24 10.3838 11.6566 10.1284C12.4629 9.98286 13.2501 9.751 14.0049 9.44203C14.3408 10.0005 14.6234 10.589 14.8482 11.2C11.4589 12.4207 8.5013 15.1789 7.33157 19.0286C5.06034 17.5166 3.56372 14.9331 3.56372 12C3.56372 10.9598 3.75194 9.96361 4.09619 9.04357Z" fill="#B8509A"/>
</svg>
