<svg width="24" height="24" viewBox="0 0 24 24" fill="none" xmlns="http://www.w3.org/2000/svg">
<path d="M1.63636 21.0045H5.45455V11.7318L0 7.64087V19.3681C0 20.2736 0.733636 21.0045 1.63636 21.0045Z" fill="#4285F4"/>
<path d="M18.5454 21.0045H22.3636C23.269 21.0045 24 20.2709 24 19.3681V7.64087L18.5454 11.7318" fill="#34A853"/>
<path d="M18.5454 4.64101V11.7319L24 7.64101V5.45919C24 3.43555 21.69 2.28191 20.0727 3.49555" fill="#FBBC04"/>
<path d="M5.45459 11.7318V4.64087L12 9.54996L18.5455 4.64087V11.7318L12 16.6409" fill="#EA4335"/>
<path d="M0 5.45919V7.64101L5.45455 11.7319V4.64101L3.92727 3.49555C2.30727 2.28191 0 3.43555 0 5.45919Z" fill="#C5221F"/>
</svg>
