<svg width="24" height="24" viewBox="0 0 24 24" fill="none" xmlns="http://www.w3.org/2000/svg">
<g clip-path="url(#clip0_14493_11336)">
<path d="M5.126 0.382602L15.9419 6.57951L11.1583 11.2927L1.258 1.5447C1.44563 1.15558 1.72397 0.81438 2.07234 0.551366C2.54774 0.192448 3.12746 -0.00117889 3.72313 1.55081e-06C4.21635 0.00132692 4.7004 0.133342 5.126 0.382602Z" fill="#FAFAFA"/>
<path d="M0.999939 2.69399V21.3018L10.4459 11.9947L0.999939 2.69399Z" fill="#FAFAFA"/>
<path d="M11.1586 12.6964L1.25695 22.4524C1.36812 22.6836 1.51166 22.8988 1.68389 23.0911C1.96163 23.4012 2.30661 23.6437 2.69244 23.8001C3.07827 23.9564 3.49475 24.0225 3.91003 23.9932C4.32531 23.964 4.7284 23.8401 5.08849 23.6312L15.97 17.4338L11.1586 12.6964Z" fill="#FAFAFA"/>
<path d="M16.8795 16.9259L21.3228 14.3888C21.7535 14.1633 22.1142 13.8242 22.3659 13.4083C22.6176 12.9924 22.7507 12.5155 22.7507 12.0294C22.7507 11.5433 22.6176 11.0664 22.3659 10.6505C22.1142 10.2346 21.7535 9.89553 21.3228 9.67004H21.3378L16.8429 7.09564L11.871 11.9944L16.8795 16.9259Z" fill="#FAFAFA"/>
</g>
<defs>
<clipPath id="clip0_14493_11336">
<rect width="24" height="24" fill="white"/>
</clipPath>
</defs>
</svg>
