<svg width="27" height="27" viewBox="0 0 27 27" fill="none" xmlns="http://www.w3.org/2000/svg">
<path d="M18 12C19.1046 12 20 11.1046 20 10C20 8.89543 19.1046 8 18 8C16.8954 8 16 8.89543 16 10C16 11.1046 16.8954 12 18 12Z" fill="#737373"/>
<path d="M8.66667 12C9.77124 12 10.6667 11.1046 10.6667 10C10.6667 8.89543 9.77124 8 8.66667 8C7.5621 8 6.66667 8.89543 6.66667 10C6.66667 11.1046 7.5621 12 8.66667 12Z" fill="#737373"/>
<path d="M13.3333 16C10.2267 16 7.57333 17.9333 6.50667 20.6667H8.73333C9.65333 19.08 11.36 18 13.3333 18C15.3067 18 17 19.08 17.9333 20.6667H20.16C19.0933 17.9333 16.44 16 13.3333 16ZM13.32 0C5.96 0 0 5.97333 0 13.3333C0 20.6933 5.96 26.6667 13.32 26.6667C20.6933 26.6667 26.6667 20.6933 26.6667 13.3333C26.6667 5.97333 20.6933 0 13.32 0ZM13.3333 24C7.44 24 2.66667 19.2267 2.66667 13.3333C2.66667 7.44 7.44 2.66667 13.3333 2.66667C19.2267 2.66667 24 7.44 24 13.3333C24 19.2267 19.2267 24 13.3333 24Z" fill="#737373"/>
</svg>
