<svg width="40" height="40" viewBox="0 0 40 40" fill="none" xmlns="http://www.w3.org/2000/svg">
<path d="M30.0003 14.1667H28.3337V10.8333C28.3337 6.23333 24.6003 2.5 20.0003 2.5C15.4003 2.5 11.667 6.23333 11.667 10.8333V14.1667H10.0003C8.16699 14.1667 6.66699 15.6667 6.66699 17.5V34.1667C6.66699 36 8.16699 37.5 10.0003 37.5H30.0003C31.8337 37.5 33.3337 36 33.3337 34.1667V17.5C33.3337 15.6667 31.8337 14.1667 30.0003 14.1667ZM20.0003 29.1667C18.167 29.1667 16.667 27.6667 16.667 25.8333C16.667 24 18.167 22.5 20.0003 22.5C21.8337 22.5 23.3337 24 23.3337 25.8333C23.3337 27.6667 21.8337 29.1667 20.0003 29.1667ZM25.167 14.1667H14.8337V10.8333C14.8337 7.98333 17.1503 5.66667 20.0003 5.66667C22.8503 5.66667 25.167 7.98333 25.167 10.8333V14.1667Z" fill="#4A2BC2"/>
</svg>
