<svg width="40" height="40" viewBox="0 0 40 40" fill="none" xmlns="http://www.w3.org/2000/svg">
<path d="M5.85059 34.2637C7.72048 34.1583 9.59495 34.1583 11.4648 34.2637C15.1962 34.4138 19.3146 35.089 23.4326 35.4141C26.7822 35.6892 30.1618 35.6794 33.3105 34.9141C29.5061 38.2986 24.5517 40.1148 19.4521 39.9942C14.3524 39.8734 9.48932 37.8246 5.85059 34.2637ZM3.76172 22.7647C6.67001 21.8966 9.72795 21.6388 12.7412 22.0088C16.1158 22.359 19.7919 23.4248 23.4326 24.3301C27.0735 25.2355 30.7448 25.9604 34.1045 25.5752C36.0384 25.3889 37.9173 24.8268 39.6338 23.9199C39.3117 25.5465 38.7848 27.1265 38.0664 28.6221C37.0142 29.1907 35.9026 29.6437 34.752 29.9727C31.2316 31.013 27.319 30.8223 23.417 30.2471C19.5151 29.6719 15.5982 28.7163 12.083 28.2461C9.04791 27.8043 5.97725 27.652 2.91309 27.791C2.3808 27.8261 1.87828 27.8262 1.40625 27.8262C0.894651 26.6003 0.505956 25.3266 0.246094 24.0244C1.22033 23.6593 2.41088 23.1648 3.76172 22.7647ZM5.76562 10.7139C8.31822 9.4568 11.2249 9.10423 14.0059 9.71389C17.019 10.2691 20.2236 11.7797 23.4326 13.3203C26.6416 14.861 29.8609 16.4215 32.874 17.0518C35.1426 17.6051 37.5198 17.531 39.749 16.8369C39.9066 17.8298 39.9904 18.8328 40 19.8379C38.0088 20.919 35.7745 21.4787 33.5068 21.4639C30.333 21.5089 26.8324 20.4784 23.3975 19.253C19.9624 18.0275 16.5174 16.6212 13.3535 15.9209C10.5966 15.2104 7.71373 15.1324 4.92188 15.6914C3.21225 16.1055 1.55924 16.7253 0 17.5371C0.105071 16.6264 0.272632 15.7238 0.501953 14.836C1.99816 13.1633 3.78068 11.7674 5.76562 10.7139ZM19.9121 2.51716e-05C24.0578 -0.00157692 28.1024 1.27476 31.4912 3.65335C34.8799 6.03187 37.4469 9.39617 38.8398 13.2852C36.744 13.9628 34.4987 14.0397 32.3613 13.5059C29.529 12.9006 26.4909 11.3695 23.4326 9.63381C20.3744 7.8982 17.3161 6.0477 14.5039 4.86721C12.6733 4.03008 10.7035 3.53465 8.69336 3.40628C12.0074 1.18013 15.9149 -0.00630153 19.9121 2.51716e-05Z" fill="#4A2BC2"/>
</svg>
