<svg width="16" height="16" viewBox="0 0 16 16" fill="none" xmlns="http://www.w3.org/2000/svg">
<g clip-path="url(#clip0_14214_13022)">
<path d="M16.25 8L14.42 5.9075L14.675 3.14L11.9675 2.525L10.55 0.125L8 1.22L5.45 0.125L4.0325 2.5175L1.325 3.125L1.58 5.9L-0.25 8L1.58 10.0925L1.325 12.8675L4.0325 13.4825L5.45 15.875L8 14.7725L10.55 15.8675L11.9675 13.475L14.675 12.86L14.42 10.0925L16.25 8Z" fill="#3271EA"/>
<path d="M6.03501 11.0075L4.25001 9.20752C3.95751 8.91502 3.95751 8.44252 4.25001 8.15002L4.30251 8.09752C4.59501 7.80502 5.07501 7.80502 5.36751 8.09752L6.57502 9.31252L10.4375 5.44252C10.73 5.15002 11.21 5.15002 11.5025 5.44252L11.555 5.49502C11.8475 5.78752 11.8475 6.26002 11.555 6.55252L7.11501 11.0075C6.80751 11.3 6.33501 11.3 6.03501 11.0075Z" fill="#FAFAFA"/>
</g>
<defs>
<clipPath id="clip0_14214_13022">
<rect width="16" height="16" fill="white"/>
</clipPath>
</defs>
</svg>
