<svg width="24" height="24" viewBox="0 0 24 24" fill="none" xmlns="http://www.w3.org/2000/svg">
<g clip-path="url(#clip0_14493_11298)">
<path fill-rule="evenodd" clip-rule="evenodd" d="M22.7465 4.83411C23.1189 5.20888 23.3863 5.67487 23.522 6.18546C24.0238 8.07 24.0238 12 24.0238 12C24.0238 12 24.0238 15.93 23.522 17.8145C23.3863 18.3251 23.1189 18.7911 22.7465 19.1659C22.3741 19.5407 21.9099 19.811 21.4002 19.95C19.5238 20.4545 12.0238 20.4545 12.0238 20.4545C12.0238 20.4545 4.5238 20.4545 2.64744 19.95C2.13773 19.811 1.67346 19.5407 1.30109 19.1659C0.92872 18.7911 0.661309 18.3251 0.525622 17.8145C0.0238038 15.93 0.0238037 12 0.0238037 12C0.0238037 12 0.0238038 8.07 0.525622 6.18546C0.661309 5.67487 0.92872 5.20888 1.30109 4.83411C1.67346 4.45935 2.13773 4.18896 2.64744 4.05C4.5238 3.54546 12.0238 3.54546 12.0238 3.54546C12.0238 3.54546 19.5238 3.54546 21.4002 4.05C21.9099 4.18896 22.3741 4.45935 22.7465 4.83411ZM15.842 12L9.56927 8.4314V15.5687L15.842 12Z" fill="#FAFAFA"/>
</g>
<defs>
<clipPath id="clip0_14493_11298">
<rect width="24" height="24" fill="white"/>
</clipPath>
</defs>
</svg>
